<?xml version="1.0" standalone="no"?>
<!DOCTYPE svg PUBLIC "-//W3C//DTD SVG 20010904//EN"
 "http://www.w3.org/TR/2001/REC-SVG-20010904/DTD/svg10.dtd">
<svg version="1.0" xmlns="http://www.w3.org/2000/svg"
 width="500.000000pt" height="500.000000pt" viewBox="0 0 500.000000 500.000000"
 preserveAspectRatio="xMidYMid meet">

<g transform="translate(0.000000,500.000000) scale(0.100000,-0.100000)"
fill="#000000" stroke="none">
<path d="M991 4848 c-19 -5 -46 -18 -59 -29 -14 -10 -31 -19 -38 -19 -7 0 -21
-11 -29 -24 -21 -32 -11 -208 16 -281 11 -27 19 -62 19 -77 0 -14 9 -55 20
-90 11 -34 20 -78 20 -95 0 -18 4 -52 10 -75 5 -24 14 -68 19 -98 6 -30 18
-86 27 -125 9 -38 17 -104 18 -145 1 -52 6 -82 18 -99 24 -33 14 -80 -38 -183
-24 -48 -51 -114 -58 -145 -8 -32 -22 -77 -30 -100 -16 -44 -36 -135 -56 -263
-6 -41 -18 -106 -27 -145 -13 -56 -14 -102 -9 -235 4 -91 10 -192 14 -225 4
-33 4 -112 0 -175 -11 -144 -6 -232 14 -290 29 -84 58 -179 58 -193 0 -8 19
-44 43 -80 85 -133 102 -161 118 -190 44 -81 122 -167 198 -217 72 -47 122
-100 119 -124 -3 -22 -80 -69 -161 -100 -26 -10 -55 -29 -63 -42 -9 -13 -26
-26 -37 -30 -12 -4 -40 -19 -62 -34 -22 -15 -78 -52 -125 -83 -108 -70 -136
-94 -234 -192 -48 -49 -87 -98 -98 -125 -11 -25 -28 -61 -39 -81 -10 -20 -22
-59 -25 -85 -4 -27 -16 -65 -28 -84 -30 -47 -43 -82 -60 -160 -8 -36 -17 -76
-21 -90 -8 -25 -8 -25 15 3 14 18 25 49 30 90 5 40 21 89 44 135 20 39 36 83
36 98 0 39 57 162 103 224 48 64 128 149 140 150 5 0 27 16 50 35 22 19 45 35
50 35 4 0 29 17 55 39 26 21 62 47 80 57 70 40 120 70 158 96 36 25 42 27 78
16 67 -21 72 -39 56 -196 -18 -176 -16 -494 4 -650 9 -66 19 -127 22 -136 8
-20 94 -23 94 -3 0 6 -7 48 -15 92 -22 113 -34 404 -24 575 9 166 13 191 40
317 l21 93 28 -15 c16 -8 40 -15 54 -15 13 0 37 -11 53 -23 15 -13 42 -31 58
-39 17 -8 44 -22 60 -31 17 -8 57 -24 90 -34 39 -11 81 -35 120 -66 59 -48
146 -98 195 -112 14 -4 -10 13 -52 38 -95 55 -145 93 -225 171 -63 60 -88 69
-35 13 22 -25 23 -29 7 -22 -11 4 -33 11 -50 15 -16 4 -48 19 -69 33 -21 15
-43 27 -48 27 -6 0 -23 11 -40 25 -19 16 -42 25 -64 25 -26 0 -44 9 -71 35
-20 19 -42 35 -50 35 -8 0 -32 18 -54 40 -22 22 -43 40 -47 40 -4 0 -21 13
-38 28 -18 15 -48 36 -68 47 -20 11 -36 23 -36 26 0 4 -20 34 -44 66 -25 32
-48 71 -51 86 -4 15 -24 41 -45 57 -23 18 -41 43 -45 60 -3 16 -19 45 -35 66
-16 20 -32 53 -36 73 -4 20 -15 53 -25 73 -11 21 -19 53 -19 73 0 20 -9 53
-20 74 -20 41 -20 33 -7 301 2 47 -1 119 -7 160 -15 100 -14 394 1 445 7 22
17 76 23 120 18 132 31 196 56 275 13 41 26 92 30 113 3 21 17 53 29 71 13 19
26 45 30 57 4 13 17 37 29 54 26 37 27 98 3 149 -15 30 -17 51 -12 92 5 39 2
61 -9 83 -9 16 -16 47 -16 68 -1 21 -7 49 -15 63 -8 14 -14 46 -15 71 0 26 -7
63 -15 82 -8 20 -15 56 -15 80 0 25 -7 64 -15 87 -8 23 -15 60 -15 80 0 21 -8
58 -18 82 -12 27 -21 82 -26 146 -6 102 1 142 26 142 7 0 30 12 52 28 37 26
44 27 140 24 55 -1 122 -9 149 -17 27 -8 60 -12 73 -9 13 3 42 -1 64 -10 22
-9 61 -16 86 -16 25 0 59 -7 77 -17 18 -9 50 -15 71 -15 26 1 57 -7 88 -23 26
-14 58 -25 71 -25 13 0 45 -6 70 -14 26 -8 47 -10 47 -6 0 10 -47 25 -102 35
-21 3 -62 17 -92 31 -30 13 -69 24 -88 24 -18 -1 -51 5 -73 14 -22 8 -53 15
-70 16 -16 0 -52 7 -79 15 -27 8 -69 15 -93 15 -24 0 -53 5 -64 11 -27 14
-196 19 -238 7z"/>
<path d="M4039 4835 c-6 -6 -65 -16 -257 -45 -35 -6 -73 -15 -85 -22 -12 -6
-39 -11 -60 -9 -24 1 -59 -8 -94 -24 -30 -14 -65 -25 -77 -25 -13 0 -44 -7
-70 -16 -52 -18 -79 -16 -181 16 -112 33 -194 51 -280 60 -44 5 -100 13 -125
19 -94 21 -242 24 -350 8 -58 -9 -136 -21 -175 -26 -99 -15 -213 -41 -300 -69
-27 -9 -59 -15 -70 -14 -16 1 -17 -1 -5 -8 8 -5 24 -10 36 -10 12 0 38 -11 58
-25 20 -14 43 -25 50 -25 8 0 32 -7 55 -15 22 -8 41 -11 41 -6 0 12 -47 31
-76 31 -24 0 -84 36 -84 51 0 5 17 11 38 14 20 4 61 16 91 26 30 11 61 19 70
18 9 -1 36 3 59 10 24 7 57 9 73 6 18 -4 49 0 77 9 83 27 215 36 334 21 58 -7
112 -17 120 -21 7 -5 47 -12 88 -16 102 -9 190 -24 220 -36 14 -5 45 -15 69
-22 l45 -12 -27 -16 c-15 -9 -27 -20 -27 -24 0 -5 -15 -8 -32 -8 -18 -1 -49
-10 -68 -21 -34 -19 -34 -20 -6 -14 15 3 42 9 60 12 17 3 38 11 46 18 30 25
64 37 124 46 145 21 174 28 206 48 23 14 52 21 83 21 26 0 62 7 79 16 19 10
42 14 60 10 17 -3 45 1 66 10 20 8 60 15 87 15 28 0 72 7 98 15 28 9 62 13 80
10 18 -3 46 -2 62 2 37 10 103 -5 131 -29 11 -11 26 -19 32 -19 7 0 21 -9 32
-20 18 -18 20 -29 14 -123 -4 -70 -12 -114 -25 -140 -10 -21 -19 -55 -19 -77
0 -22 -9 -62 -20 -90 -11 -28 -20 -68 -20 -89 0 -20 -7 -61 -15 -89 -9 -28
-13 -62 -9 -75 3 -16 -2 -40 -15 -65 -12 -23 -21 -58 -21 -79 -1 -21 -7 -49
-15 -63 -9 -17 -12 -42 -8 -80 4 -43 1 -62 -14 -90 -24 -43 -24 -121 0 -147 9
-10 22 -32 29 -48 7 -17 21 -41 30 -55 9 -14 22 -52 28 -85 7 -33 19 -73 27
-89 19 -36 57 -232 69 -356 3 -30 11 -71 18 -90 9 -23 12 -71 9 -145 -3 -60
-5 -128 -4 -150 0 -22 -6 -78 -14 -125 -7 -49 -11 -123 -8 -175 9 -166 4 -250
-17 -297 -11 -23 -20 -56 -20 -71 0 -15 -9 -45 -20 -67 -11 -22 -20 -48 -20
-58 0 -11 -16 -42 -35 -70 -19 -28 -37 -62 -41 -76 -3 -14 -22 -39 -40 -56
-19 -16 -43 -49 -53 -73 -10 -23 -30 -53 -44 -65 -14 -13 -31 -36 -37 -51 -6
-16 -28 -38 -48 -50 -65 -38 -141 -95 -157 -117 -8 -12 -27 -25 -42 -29 -15
-3 -42 -22 -61 -41 -24 -25 -42 -34 -66 -34 -19 0 -46 -10 -66 -25 -19 -14
-38 -25 -44 -25 -5 0 -26 -11 -45 -24 -20 -14 -48 -27 -63 -30 -14 -2 -36 -9
-47 -16 -24 -13 -28 2 -5 20 8 8 20 23 26 34 6 12 -13 -4 -43 -34 -68 -68
-169 -142 -274 -198 -44 -24 -69 -40 -55 -36 54 14 168 75 225 121 60 48 132
83 171 83 12 0 38 11 58 25 20 14 41 25 45 25 4 0 28 13 52 30 24 16 54 30 67
30 13 0 32 5 43 10 23 13 24 7 5 -75 -8 -33 -19 -94 -25 -135 -6 -41 -20 -115
-31 -165 -10 -49 -29 -139 -40 -200 -12 -60 -41 -193 -66 -294 -24 -101 -44
-185 -44 -187 0 -2 26 -4 59 -4 l59 0 7 47 c3 27 17 91 30 143 34 135 81 365
104 505 19 120 48 311 53 352 l3 22 45 -23 c25 -13 70 -35 100 -51 67 -33 63
-29 51 -52 -9 -17 -29 -131 -37 -213 -3 -29 -2 -31 4 -10 l8 25 7 -25 c11 -42
8 -87 -8 -100 -8 -7 -15 -18 -14 -24 0 -7 2 -6 6 2 6 15 53 16 53 1 0 -6 7 -9
15 -5 9 3 15 0 15 -9 0 -9 -10 -13 -27 -12 -23 2 -28 -3 -34 -33 -17 -80 -21
-122 -10 -115 6 3 11 1 11 -5 0 -8 9 -10 23 -7 36 10 49 -5 41 -48 -5 -27 -9
-33 -16 -23 -6 8 -7 1 -3 -21 5 -23 4 -31 -4 -27 -12 8 -13 4 -15 -66 -2 -51
-28 -91 -53 -81 -11 4 -9 8 8 17 12 6 24 18 27 26 3 10 0 10 -9 -3 -19 -24
-72 -28 -77 -5 -3 14 2 16 30 11 33 -5 35 -3 47 37 7 23 10 45 7 48 -3 3 -6
-2 -6 -11 0 -20 -20 -22 -45 -4 -28 21 -13 67 23 68 26 1 26 1 -5 10 -31 9
-33 13 -32 52 0 34 2 38 10 22 6 -14 8 -7 4 25 -3 31 -2 39 4 25 6 -13 8 9 6
63 -3 78 -15 130 -15 66 -1 -89 -8 -145 -19 -158 -8 -9 -11 -23 -7 -31 3 -9 2
-14 -3 -11 -9 6 -25 -54 -16 -62 3 -3 5 2 5 11 0 10 4 17 9 17 16 0 20 -29 10
-59 -12 -34 -39 -50 -40 -23 -1 27 -25 -49 -31 -98 -6 -44 -5 -45 8 -15 7 17
11 39 8 50 -4 16 -3 17 5 5 9 -13 11 -13 11 1 0 22 26 43 41 34 8 -6 7 -10 -2
-17 -10 -6 -2 -8 24 -6 29 3 36 1 32 -10 -3 -7 -5 -15 -5 -18 0 -2 -11 2 -25
8 -14 6 -27 9 -29 7 -2 -2 -20 -44 -41 -93 -31 -72 -35 -90 -24 -97 8 -5 20
-9 27 -9 8 0 10 -5 6 -12 -5 -9 -2 -9 7 0 12 12 11 16 -8 29 -13 9 -23 22 -23
29 0 19 16 18 24 -1 3 -8 11 -12 19 -9 18 7 41 -21 33 -41 -3 -9 -2 -13 4 -10
6 3 10 16 10 27 0 12 16 51 36 87 40 72 83 230 82 303 0 25 7 61 16 80 19 41
46 216 46 303 0 53 3 65 16 65 18 0 114 -67 114 -80 0 -4 13 -13 28 -19 15 -7
40 -23 55 -36 14 -14 30 -25 34 -25 10 0 126 -122 160 -168 31 -41 93 -185 93
-215 0 -14 16 -58 35 -98 19 -41 37 -96 41 -124 7 -60 23 -105 36 -105 6 0 7
8 3 18 -4 9 -12 44 -16 77 -6 35 -26 93 -49 140 -22 44 -40 93 -40 109 0 16
-9 48 -19 70 -11 23 -26 58 -35 79 -26 63 -120 168 -226 252 -28 22 -66 52
-84 67 -18 15 -55 39 -83 52 -38 19 -52 33 -57 53 -6 30 -70 78 -88 67 -8 -5
-46 10 -123 49 -53 28 -72 37 -97 46 -16 6 -28 18 -28 26 0 19 59 95 73 95 14
0 157 110 157 121 0 5 17 28 39 52 21 23 46 58 56 77 10 19 32 49 50 67 18 17
35 43 39 58 4 15 22 49 41 77 19 28 35 60 35 72 0 12 9 38 20 59 11 20 20 48
20 62 0 13 9 47 20 76 21 52 23 95 19 324 -1 50 4 164 11 255 13 176 10 271
-14 415 -40 242 -48 281 -67 338 -12 34 -27 86 -35 114 -8 29 -32 88 -53 132
-45 89 -52 141 -27 190 14 26 16 46 11 87 -3 29 -2 61 3 71 6 10 12 39 15 65
3 25 11 57 18 69 7 13 16 55 21 94 21 173 26 202 42 233 9 18 20 56 23 85 3
29 11 63 18 77 7 14 18 78 25 142 11 105 11 121 -4 142 -8 14 -26 28 -38 32
-12 4 -35 16 -51 28 -24 18 -46 21 -140 24 -62 2 -115 1 -118 -3z m51 -3915
c0 -22 -4 -40 -10 -40 -5 0 -10 18 -10 40 0 22 5 40 10 40 6 0 10 -18 10 -40z
m-37 -61 c-4 -4 -6 -36 -5 -69 4 -59 5 -62 28 -57 16 3 24 0 24 -10 0 -10 -10
-13 -37 -11 l-38 3 3 85 c1 47 5 96 9 110 5 24 6 24 15 -9 5 -18 6 -37 1 -42z
m90 -1 c-4 -40 -10 -58 -19 -58 -16 0 -15 111 1 122 18 13 23 -6 18 -64z m-43
-24 c0 -24 -4 -34 -12 -32 -18 6 -22 49 -6 59 18 12 18 13 18 -27z m-17 -56
c3 -10 8 -10 21 1 15 12 19 12 33 -1 14 -14 13 -26 -2 -123 -23 -150 -14 -139
-102 -125 -2 0 -3 7 -3 15 0 11 7 14 24 9 29 -7 34 0 39 62 3 27 2 39 0 27 -3
-16 -11 -23 -28 -23 -30 0 -38 13 -30 50 5 22 12 30 29 30 12 0 28 -6 35 -12
10 -11 12 -5 9 27 -2 33 -7 41 -25 43 -13 2 -23 10 -23 18 0 17 17 19 23 2z
m-23 -280 c0 -32 -14 -58 -29 -58 -13 0 -16 7 -13 35 3 26 9 35 23 35 10 0 19
-6 19 -12z m30 -28 c0 -29 -4 -40 -15 -40 -17 0 -18 4 -9 49 9 44 24 39 24 -9z
m-33 -222 c-3 -8 -6 -5 -6 6 -1 11 2 17 5 13 3 -3 4 -12 1 -19z m-97 -109 c0
-15 -23 -59 -31 -59 -15 0 -19 18 -8 48 7 20 15 29 25 25 8 -3 14 -9 14 -14z
m40 -9 c0 -6 -7 -25 -16 -42 -21 -41 -43 -23 -24 21 12 29 40 43 40 21z"/>
<path d="M4100 558 c0 -9 -6 -19 -12 -21 -10 -4 -10 -6 0 -6 14 -1 28 26 18
36 -3 4 -6 -1 -6 -9z"/>
<path d="M926 4640 c3 -14 12 -38 20 -54 7 -16 11 -33 7 -39 -3 -5 0 -8 7 -5
13 4 82 -51 76 -61 -2 -3 9 -7 26 -7 17 -1 34 -7 38 -13 4 -7 10 -12 14 -12 9
2 59 -11 71 -18 6 -3 17 -7 26 -8 9 -1 38 -12 65 -24 l49 -21 -41 -15 c-60
-20 -121 -77 -155 -144 -33 -67 -59 -157 -59 -207 l0 -34 38 37 c40 40 57 49
114 59 l38 7 -32 -47 c-35 -52 -58 -127 -58 -187 l0 -38 31 36 c17 19 45 45
62 57 l30 21 -7 -37 c-8 -41 10 -146 25 -146 5 0 9 9 9 20 0 12 8 35 17 53 15
27 18 29 21 12 6 -33 24 -75 33 -75 4 0 11 16 15 36 l7 37 13 -31 c11 -26 40
-52 58 -52 3 0 6 20 6 44 0 55 33 166 68 226 36 63 62 79 62 38 0 -32 15 -54
25 -38 11 18 -71 174 -122 230 -51 57 -148 132 -213 165 -25 12 -88 37 -140
54 -121 41 -182 87 -233 175 -15 27 -17 28 -11 6z m470 -309 c50 -30 147 -131
177 -183 l27 -47 -34 -45 c-40 -53 -73 -135 -90 -226 -12 -65 -12 -65 -28 -40
-9 14 -19 36 -23 49 l-7 24 -20 -24 -19 -24 6 43 c4 23 3 42 -2 42 -10 0 -63
-74 -63 -89 0 -5 -5 -13 -12 -17 -16 -10 -2 99 17 137 9 16 12 29 7 29 -14 0
-96 -55 -116 -78 -29 -33 -35 -26 -21 22 19 61 49 119 79 147 33 31 32 35 -5
43 -41 8 -106 -10 -146 -40 -17 -13 -34 -24 -36 -24 -7 0 27 106 51 161 11 25
38 63 61 85 79 75 138 91 197 55z"/>
<path d="M4294 4598 c-41 -72 -95 -110 -211 -148 -128 -43 -193 -76 -273 -140
-82 -66 -133 -127 -176 -212 -35 -69 -42 -98 -24 -98 6 0 10 11 10 24 0 79 71
-5 109 -128 12 -38 21 -93 21 -122 0 -52 1 -54 21 -44 11 6 29 25 39 42 l19
31 6 -37 c4 -20 11 -36 15 -36 4 0 13 23 20 51 11 45 14 48 25 32 7 -11 16
-36 20 -56 4 -20 11 -37 15 -37 17 0 32 74 27 132 l-5 58 39 -31 c21 -17 48
-42 59 -56 l20 -26 0 45 c0 62 -24 137 -60 187 l-30 42 27 -6 c16 -4 38 -8 51
-11 13 -3 43 -23 68 -46 l44 -41 0 45 c0 137 -107 308 -213 340 -25 7 -34 14
-25 19 23 12 223 82 236 82 6 0 12 4 12 8 0 4 9 11 21 14 12 4 38 22 59 41
l38 35 0 -36 c0 -19 -4 -35 -9 -35 -5 0 -9 -5 -9 -10 0 -6 8 -5 20 2 13 9 18
19 14 32 -4 11 -2 16 4 12 11 -7 23 102 13 122 -4 7 -18 -7 -37 -40z m-288
-299 c55 -38 90 -90 126 -192 35 -98 35 -107 1 -75 -43 39 -93 54 -167 50
l-28 -2 32 -37 c47 -53 106 -193 82 -193 -5 0 -19 12 -33 26 -27 29 -93 74
-109 74 -6 0 -4 -13 6 -31 8 -17 18 -57 20 -88 l5 -56 -20 35 c-10 19 -31 46
-46 60 l-27 25 4 -37 c4 -39 -5 -51 -17 -21 -5 14 -10 9 -25 -23 -23 -52 -40
-64 -40 -29 0 74 -52 214 -100 269 l-32 36 30 48 c31 48 108 126 172 176 29
23 42 26 78 22 25 -3 62 -19 88 -37z"/>
<path d="M4265 4504 c-11 -17 -12 -25 -4 -22 6 2 16 14 20 26 11 29 5 28 -16
-4z"/>
<path d="M4216 4471 c-3 -5 2 -15 12 -22 15 -13 16 -12 4 3 -10 13 -10 17 0
21 9 4 9 6 1 6 -6 1 -14 -3 -17 -8z"/>
<path d="M2135 4265 c34 -27 41 -29 50 -15 4 6 -9 17 -29 25 -50 21 -55 19
-21 -10z"/>
<path d="M3101 4276 c-19 -7 -37 -18 -39 -24 -6 -20 21 -13 53 13 34 28 33 28
-14 11z"/>
<path d="M2598 4173 c12 -2 32 -2 45 0 12 2 2 4 -23 4 -25 0 -35 -2 -22 -4z"/>
<path d="M2479 4140 c-39 -20 -89 -73 -89 -93 0 -7 12 3 27 22 15 18 47 47 72
62 51 33 45 38 -10 9z"/>
<path d="M2756 4131 c17 -10 45 -36 62 -57 18 -21 32 -35 32 -30 0 18 -52 76
-80 91 -41 21 -51 19 -14 -4z"/>
<path d="M1905 4104 c-52 -27 -85 -65 -85 -99 0 -40 16 -55 57 -55 87 0 183
108 138 154 -21 20 -71 21 -110 0z m75 -9 c0 -8 -7 -15 -15 -15 -16 0 -20 12
-8 23 11 12 23 8 23 -8z"/>
<path d="M3238 4109 c-25 -14 -23 -70 3 -103 27 -34 89 -66 128 -66 38 0 65
36 55 74 -8 34 -64 82 -111 95 -46 13 -53 13 -75 0z m52 -24 c0 -8 -7 -15 -15
-15 -8 0 -15 7 -15 15 0 8 7 15 15 15 8 0 15 -7 15 -15z"/>
<path d="M2540 4070 c-20 -38 29 -90 86 -90 34 0 84 41 84 69 0 31 -23 41 -92
41 -57 0 -69 -3 -78 -20z"/>
<path d="M2098 3881 c-78 -41 -138 -89 -204 -163 -11 -13 -30 -32 -42 -43 -58
-52 -152 -155 -152 -165 0 -6 -15 -26 -34 -44 -19 -18 -37 -45 -41 -62 -16
-77 -42 -146 -82 -222 -23 -46 -43 -89 -43 -96 0 -17 -48 -124 -59 -130 -6 -4
-32 -55 -90 -176 -7 -14 -21 -41 -32 -60 -12 -23 -19 -55 -19 -90 0 -38 -6
-64 -20 -85 -11 -16 -20 -46 -20 -65 0 -19 -9 -48 -20 -65 -11 -16 -20 -40
-20 -53 0 -13 -5 -33 -12 -45 -27 -49 -50 -361 -31 -417 7 -19 13 -48 13 -65
0 -16 8 -42 18 -56 29 -44 55 -82 92 -134 20 -27 42 -62 49 -76 7 -15 24 -33
37 -40 14 -7 40 -31 58 -54 19 -23 53 -49 75 -60 23 -10 41 -22 41 -26 0 -12
55 -39 78 -39 11 0 39 -9 63 -20 24 -11 56 -20 71 -20 15 0 47 -16 73 -35 30
-23 61 -38 90 -42 25 -3 59 -16 77 -29 17 -13 44 -24 59 -24 21 0 37 -11 64
-44 42 -52 87 -72 193 -88 43 -7 88 -20 101 -30 13 -10 30 -18 37 -18 11 0 14
-27 14 -128 0 -77 4 -132 11 -139 6 -6 12 -48 14 -94 3 -95 45 -259 76 -297
13 -17 19 -20 19 -10 0 14 27 28 56 28 6 0 16 -11 22 -25 15 -32 15 -32 -3
-39 -9 -3 -20 5 -29 22 -9 15 -15 23 -16 19 0 -5 5 -18 11 -29 16 -30 -11 -45
-28 -15 -11 19 -12 16 -6 -23 6 -46 37 -124 86 -217 24 -46 31 -53 58 -53 17
0 38 7 47 16 14 15 17 15 29 -2 19 -26 16 -9 -7 36 -23 44 -23 45 -52 29 -16
-8 -22 -8 -29 2 -11 18 9 29 41 23 20 -3 21 -3 6 4 -18 8 -18 9 -2 15 10 4 27
0 39 -8 12 -8 18 -15 14 -15 -4 0 -1 -13 8 -30 19 -37 24 -38 17 -3 -6 31 -42
95 -42 75 0 -9 -5 -10 -19 -3 -25 14 -42 65 -32 94 l8 22 7 -23 c5 -13 10 -22
12 -19 7 7 -27 81 -47 100 -23 21 -23 19 -4 -26 22 -53 19 -65 -22 -82 -29
-12 -38 -13 -45 -3 -12 20 -9 28 11 28 11 0 23 5 26 11 8 12 -56 189 -68 189
-5 0 -17 -5 -28 -10 -15 -9 -19 -7 -19 7 0 13 8 18 28 18 15 0 33 -4 40 -8 17
-11 15 -2 -4 17 -8 9 -11 16 -5 16 5 0 13 -5 17 -11 5 -8 8 -8 13 0 7 10 12
-30 13 -92 1 -17 4 -24 8 -17 6 9 9 9 13 -1 14 -38 -8 83 -24 131 -10 31 -16
41 -13 22 6 -32 5 -33 -15 -23 -12 7 -21 18 -21 26 0 7 -3 21 -7 31 -5 13 -3
15 7 9 8 -5 11 -4 7 1 -3 6 -2 16 4 24 7 12 9 9 9 -9 0 -13 2 -22 5 -19 9 9
-6 86 -21 105 -12 16 -13 16 -14 -10 0 -18 4 -26 11 -21 18 11 0 -39 -20 -54
-19 -15 -63 -12 -68 5 -2 6 6 13 18 15 12 2 24 9 27 16 3 9 -4 11 -25 6 -15
-4 -30 -8 -32 -10 -2 -2 7 -45 20 -96 23 -90 25 -93 53 -93 31 -1 45 -18 25
-31 -8 -5 -9 -3 -4 6 5 9 2 10 -14 5 -13 -4 -28 -1 -36 5 -20 17 -19 5 1 -14
14 -15 14 -16 -1 -16 -8 0 -20 12 -26 28 -22 55 -58 213 -53 227 5 13 35 19
82 18 6 -1 12 5 12 12 0 8 -9 10 -25 7 -23 -4 -25 -1 -25 32 0 44 26 51 33 9
2 -16 5 -2 6 30 1 63 -12 78 -52 59 -21 -10 -21 -11 5 -11 15 -1 30 -6 34 -12
10 -16 -16 -30 -51 -27 l-30 3 2 65 c1 57 0 60 -7 25 -6 -32 -7 -27 -4 25 2
36 4 82 4 103 0 24 5 37 13 37 10 0 12 -23 10 -97 -2 -54 0 -92 3 -85 3 7 24
12 49 12 l43 0 -4 -63 c-3 -44 -1 -55 5 -37 9 24 9 23 11 -10 2 -34 3 -34 11
10 4 25 7 61 7 80 l0 35 -9 -39 c-13 -53 -17 -55 -17 -9 0 36 -9 118 -16 156
-2 9 0 15 5 11 5 -3 9 -1 9 5 0 5 -6 11 -12 14 -7 2 -10 8 -6 12 4 4 14 5 23
2 11 -5 15 -24 16 -79 l1 -73 8 54 c5 30 6 60 3 67 -7 19 37 44 78 44 22 0 47
8 63 21 22 17 44 22 104 25 69 3 75 1 58 -12 -11 -8 -15 -14 -8 -14 6 0 9 -7
5 -17 -4 -11 -3 -14 6 -9 7 5 10 14 7 22 -6 17 -1 17 25 4 11 -7 19 -7 19 -1
0 21 51 70 67 64 11 -5 14 -3 8 6 -6 10 -3 11 12 2 17 -8 22 -6 31 14 7 14 23
27 39 30 51 11 77 30 87 63 8 27 14 32 40 32 20 0 44 11 66 28 47 39 74 52
104 52 13 0 37 7 53 15 15 8 45 17 65 20 21 3 51 17 67 31 16 13 45 31 64 39
19 8 49 32 66 54 18 22 40 42 50 46 10 3 30 27 44 54 15 27 34 54 43 62 9 7
30 33 47 58 17 25 39 55 49 65 10 11 18 35 18 53 0 19 6 49 14 68 27 64 11
352 -19 341 -20 -7 -85 35 -109 71 -14 20 -31 60 -37 89 -11 47 -9 60 11 123
l22 71 19 -37 c11 -21 19 -51 19 -68 0 -16 9 -45 20 -63 11 -18 20 -43 20 -56
0 -29 42 -126 47 -109 2 6 -3 28 -11 48 -9 21 -16 46 -16 57 0 10 -9 39 -21
64 -15 34 -20 66 -20 124 0 63 -3 81 -18 95 -11 9 -22 31 -25 50 -4 18 -15 44
-25 56 -10 13 -35 62 -56 109 -21 47 -46 94 -56 106 -11 11 -19 24 -19 29 0
25 -95 241 -110 250 -4 3 -12 20 -15 38 -4 17 -22 57 -41 88 -19 31 -34 60
-34 65 0 12 -105 164 -140 204 l-32 35 34 -48 c18 -27 42 -63 53 -81 11 -17
32 -48 48 -67 15 -20 27 -40 27 -45 0 -6 14 -32 32 -60 17 -27 35 -66 40 -88
5 -21 18 -50 28 -64 11 -13 20 -32 20 -42 0 -10 9 -29 20 -43 11 -14 20 -34
20 -44 0 -10 8 -29 17 -42 23 -33 19 -190 -8 -331 -16 -82 -30 -123 -65 -185
-44 -81 -103 -160 -89 -120 57 159 74 225 58 225 -4 0 -26 -29 -48 -65 -21
-36 -66 -91 -98 -122 l-59 -58 17 40 c35 83 73 203 80 251 l6 49 -42 -78 c-23
-43 -44 -76 -46 -73 -2 2 0 21 6 42 23 89 32 268 21 405 -12 147 -41 304 -66
365 -29 71 -114 189 -114 160 0 -3 13 -24 29 -48 62 -92 100 -218 108 -353 7
-130 -7 -215 -51 -306 l-36 -74 7 55 c16 146 -5 327 -50 423 l-25 52 4 -45 c2
-25 3 -45 4 -45 1 0 3 -35 5 -77 2 -43 0 -78 -5 -78 -9 0 -80 103 -80 117 0 4
-11 20 -25 35 -14 15 -25 35 -25 45 0 12 -3 14 -8 6 -9 -14 -93 193 -119 294
-14 52 -19 61 -21 40 -4 -30 18 -137 42 -204 8 -24 13 -43 9 -43 -3 0 2 -11
11 -24 9 -14 13 -33 9 -42 -4 -12 -3 -15 6 -10 9 6 12 2 10 -10 -1 -11 8 -41
20 -67 13 -26 21 -50 19 -53 -8 -7 -88 73 -144 143 -27 35 -52 63 -57 63 -14
0 31 -75 103 -169 39 -51 69 -95 68 -97 -8 -8 -193 104 -251 151 -34 28 -67
50 -73 48 -6 -2 -17 3 -24 12 -7 9 -8 15 -2 15 6 0 13 -6 15 -12 4 -10 6 -10
6 -1 1 7 -8 17 -18 23 -11 5 -22 19 -26 29 -8 26 -35 16 -35 -13 0 -12 -5 -27
-10 -32 -13 -13 20 -124 57 -197 13 -27 23 -51 21 -53 -10 -9 -110 71 -180
144 -43 44 -78 77 -78 73 -1 -3 -7 5 -15 19 -8 14 -14 19 -15 12 0 -7 -4 -10
-10 -7 -10 6 -7 -17 16 -124 8 -35 13 -66 10 -68 -5 -5 -36 46 -67 112 -13 27
-31 57 -40 66 -39 40 -50 352 -16 449 16 45 16 45 -3 22 -31 -38 -41 -89 -46
-227 -4 -137 -22 -223 -55 -266 l-19 -24 10 34 c5 19 7 37 5 40 -3 2 -5 -1 -5
-8 0 -7 -4 -10 -9 -7 -11 7 -23 -22 -15 -35 3 -5 0 -9 -6 -9 -7 0 -10 -7 -6
-15 3 -8 1 -15 -3 -15 -5 0 -17 -24 -26 -53 -31 -100 -53 -106 -36 -11 22 122
31 221 25 273 -8 62 -11 58 -50 -50 -27 -76 -158 -344 -173 -353 -4 -3 -6 17
-5 45 2 30 -1 47 -6 44 -14 -8 -13 -2 10 105 23 107 23 107 11 94 -27 -29 -65
-219 -76 -379 -3 -49 -7 -91 -9 -92 -2 -2 -11 27 -21 64 -9 37 -21 76 -26 86
-5 10 -7 23 -4 30 4 7 0 4 -8 -6 -13 -15 -15 -8 -16 65 -3 146 36 301 106 421
42 71 37 86 -7 22 -91 -132 -118 -246 -133 -548 -10 -208 -9 -250 5 -339 9
-56 15 -104 14 -106 -2 -1 -18 25 -36 60 -18 35 -35 65 -37 68 -9 10 9 -56 39
-140 32 -92 55 -134 103 -189 l30 -35 -42 24 c-93 51 -192 182 -233 306 -27
81 -42 92 -25 17 27 -113 82 -232 144 -313 53 -68 41 -64 -29 10 -58 60 -83
97 -125 185 -68 141 -85 202 -95 339 l-7 111 -1 -110 c-2 -130 18 -254 58
-368 16 -45 27 -83 25 -85 -7 -8 -54 53 -97 126 -24 40 -44 66 -46 58 -6 -29
37 -159 73 -219 20 -33 33 -62 29 -66 -12 -11 -97 94 -124 154 -28 60 -60 193
-60 244 0 14 9 40 20 56 11 17 20 37 20 46 0 8 11 30 25 49 14 19 25 42 25 52
0 9 14 33 30 51 17 19 30 43 30 53 0 11 7 28 15 38 8 11 15 30 15 42 0 12 8
32 19 45 10 13 23 41 30 61 7 20 18 41 25 48 8 6 17 27 21 47 3 19 22 58 41
85 19 28 34 56 34 64 0 7 13 28 28 46 16 18 40 54 55 79 14 26 52 69 84 98 66
58 58 50 115 115 33 38 66 60 144 97 l100 48 63 -10 c35 -5 65 -8 68 -6 4 5
-126 38 -142 36 -5 -1 -49 -22 -97 -48z m28 -711 c-14 -63 -34 -137 -46 -163
-12 -27 -19 -51 -16 -55 9 -8 135 122 176 182 18 27 45 78 60 113 26 61 39 71
41 29 1 -43 67 -189 112 -251 47 -63 131 -136 194 -169 45 -23 51 -20 21 12
-40 42 -56 73 -83 153 l-25 74 31 -33 c47 -52 169 -113 238 -119 96 -9 177 15
102 30 -61 13 -131 101 -191 242 l-21 50 63 -61 c107 -104 206 -161 327 -188
40 -9 85 -16 99 -16 17 0 40 -15 70 -47 l45 -46 -7 -86 c-3 -47 -13 -111 -20
-142 -13 -54 -13 -56 5 -52 11 3 19 9 19 14 0 5 15 30 34 56 18 27 45 77 59
113 l26 65 1 -100 c0 -55 -9 -153 -20 -219 -19 -112 -30 -153 -30 -112 0 30
-41 93 -80 125 -133 107 -358 67 -426 -77 -20 -42 -11 -52 20 -23 l24 22 7
-38 c9 -51 14 -56 32 -38 14 14 17 14 32 0 24 -20 90 -19 114 2 18 17 19 17
33 -1 13 -18 15 -17 31 20 9 21 16 41 16 44 0 3 -3 20 -6 38 -9 44 8 42 71 -8
84 -67 79 -95 -29 -149 -81 -40 -39 -54 48 -15 17 8 35 14 39 14 4 0 23 15 42
33 l34 32 -7 -35 c-9 -46 -38 -92 -81 -130 -20 -17 -35 -33 -33 -34 6 -5 112
10 132 19 37 16 16 -26 -35 -65 -45 -36 -48 -40 -22 -34 16 4 40 11 52 16 13
4 27 6 32 3 5 -3 10 1 13 7 3 9 8 10 16 2 22 -20 -87 -224 -170 -318 -44 -50
-235 -196 -409 -313 -119 -80 -239 -143 -271 -143 -66 0 -556 331 -660 447
-52 58 -116 155 -151 228 -28 61 -30 85 -7 85 6 0 7 -5 3 -12 -4 -7 -3 -8 5
-4 14 9 5 26 -13 26 -8 0 -20 8 -27 18 -12 15 -12 16 1 6 8 -6 35 -16 60 -23
25 -7 53 -15 63 -18 13 -3 8 5 -14 26 -27 26 -29 31 -12 31 10 0 25 -6 33 -12
12 -11 12 -10 1 5 -7 9 -24 17 -38 17 -13 0 -26 7 -29 15 -4 8 -10 13 -14 10
-4 -3 -11 2 -14 10 -5 13 -2 14 15 5 24 -14 49 -20 109 -27 l45 -6 -41 39
c-45 42 -68 81 -79 132 l-7 33 46 -35 c43 -32 127 -66 165 -66 9 0 -18 19 -59
43 -49 27 -76 49 -78 62 -3 23 79 109 115 119 20 7 21 5 12 -27 -7 -28 -5 -43
16 -86 22 -44 28 -51 40 -41 17 14 20 24 5 15 -5 -3 -10 -2 -10 4 0 18 24 17
42 -1 19 -19 64 -24 87 -9 9 6 22 6 31 1 14 -7 19 0 30 42 l14 50 23 -26 c28
-33 37 -33 29 0 -23 90 -123 154 -243 154 -38 0 -90 -7 -114 -15 -55 -19 -125
-87 -143 -139 -12 -36 -13 -35 -34 81 -14 74 -22 157 -22 223 l0 105 60 -120
c32 -66 68 -126 80 -133 24 -15 24 -10 5 65 -8 31 -15 82 -15 113 l0 56 39 10
c37 10 175 5 319 -11 75 -9 82 4 20 36 -59 30 -184 30 -292 0 -44 -12 -83 -18
-88 -13 -4 4 5 29 22 55 16 26 30 50 30 53 0 2 19 34 41 70 41 65 127 246 131
274 1 8 3 -1 5 -20 2 -20 -7 -87 -21 -150z m-309 -222 c-3 -8 -6 -5 -6 6 -1
11 2 17 5 13 3 -3 4 -12 1 -19z m1994 -61 c6 -23 17 -49 24 -57 7 -8 17 -28
21 -45 4 -16 16 -43 27 -58 24 -35 20 -92 -17 -214 -28 -94 -51 -140 -42 -84
4 19 9 86 11 150 l6 116 -46 -94 c-25 -52 -45 -98 -45 -102 0 -5 -4 -9 -8 -9
-5 0 0 44 10 98 20 104 27 263 15 325 -8 36 -7 38 12 27 12 -6 25 -29 32 -53z
m-1521 7 l25 -15 -34 5 c-18 3 -86 7 -150 7 -136 2 -100 16 44 17 64 1 97 -3
115 -14z m-939 -466 c-1 -57 -22 -113 -58 -150 -28 -29 -80 -55 -90 -44 -4 3
3 30 15 59 12 29 22 61 22 72 0 12 7 31 16 44 10 13 18 41 20 63 1 22 10 50
18 63 9 14 16 32 17 42 2 39 40 -105 40 -149z m833 141 c21 -6 50 -22 64 -36
23 -23 24 -26 8 -41 -16 -16 -18 -16 -35 5 -10 12 -35 25 -55 28 -56 11 -92
55 -43 55 12 0 39 -5 61 -11z m976 -9 c10 -6 11 -10 3 -10 -7 0 -13 -11 -13
-25 0 -28 -29 -35 -49 -11 -7 8 -27 14 -46 14 -47 0 -63 11 -40 29 22 15 123
17 145 3z m-100 -116 c0 -8 -5 -12 -10 -9 -6 4 -8 11 -5 16 9 14 15 11 15 -7z
m-1582 -172 c-9 -4 21 -74 40 -92 14 -13 15 -13 5 0 -6 8 -14 29 -17 47 -7 28
-5 31 14 26 11 -3 23 -9 26 -14 7 -12 44 -11 44 1 0 6 -5 10 -11 10 -5 0 -7 5
-4 10 3 6 1 10 -5 10 -6 0 -8 5 -4 11 4 8 12 2 21 -15 7 -14 18 -26 23 -26 11
0 90 -76 90 -86 0 -4 -13 4 -28 19 -16 15 -32 24 -37 20 -4 -5 -5 -3 -2 3 4 7
0 15 -9 18 -8 3 -13 2 -10 -3 3 -5 -5 -12 -19 -15 -23 -6 -52 -42 -42 -53 3
-2 8 5 12 16 11 35 68 31 107 -7 33 -31 46 -23 31 19 -9 23 -9 29 0 27 15 -4
107 -190 100 -201 -6 -11 -79 -1 -152 19 -64 18 -107 51 -163 125 -50 66 -67
105 -72 164 l-5 45 37 -38 c20 -20 34 -38 30 -40z m2225 53 c-3 -9 -8 -14 -10
-11 -3 3 -2 9 2 15 9 16 15 13 8 -4z m82 -121 c-35 -71 -114 -157 -170 -184
-44 -22 -195 -41 -195 -25 0 18 90 195 99 195 7 0 7 -8 2 -23 -5 -14 -6 -30 0
-38 7 -11 14 -7 38 19 36 39 63 41 90 6 12 -15 21 -21 21 -15 0 23 -21 51 -37
51 -9 0 6 11 33 25 27 14 51 25 53 25 2 0 1 -15 -3 -32 -5 -31 -5 -32 9 -14
14 19 20 39 16 60 -1 5 13 24 31 42 l33 32 3 -35 c2 -23 -6 -54 -23 -89z
m-2425 82 c0 -31 -4 -36 -36 -46 -19 -7 -38 -9 -41 -6 -4 3 -1 6 5 6 7 0 24
18 38 40 15 22 28 40 30 40 2 0 4 -15 4 -34z m2555 -34 c29 -35 29 -35 5 -27
-41 13 -80 35 -80 46 0 6 5 20 12 32 11 21 12 21 22 3 6 -11 24 -35 41 -54z
m-264 -1 c-6 -11 -20 -25 -32 -31 -11 -6 -17 -14 -15 -19 3 -4 -10 -12 -27
-19 l-32 -12 40 35 c22 19 43 34 47 35 4 0 10 9 13 21 4 11 9 18 12 16 2 -3 0
-15 -6 -26z m-2130 -166 c63 -66 111 -90 212 -101 31 -4 57 -7 57 -8 0 0 -7
-25 -14 -54 -18 -66 -54 -115 -114 -152 l-46 -29 28 -7 c37 -9 103 1 158 25
l45 19 6 -48 c8 -65 41 -126 79 -150 18 -11 34 -18 35 -16 2 2 0 21 -5 42 -5
22 -5 48 -1 59 5 14 8 15 8 4 1 -19 59 -75 89 -84 12 -3 22 -13 22 -22 0 -28
-33 -84 -62 -106 -39 -29 -35 -37 15 -37 42 0 91 23 134 63 13 11 24 19 26 16
2 -2 13 -20 24 -41 l21 -36 -28 -12 c-16 -7 -36 -23 -45 -36 -13 -20 -33 -128
-35 -182 0 -9 -5 -10 -19 -2 -11 5 -31 10 -44 10 -13 0 -36 10 -51 21 -15 12
-48 24 -74 27 -32 3 -61 16 -91 38 -24 19 -60 36 -80 39 -20 3 -43 10 -51 14
-8 5 -41 16 -72 25 -31 9 -63 25 -71 36 -7 11 -34 29 -60 40 -28 12 -54 33
-66 53 -11 19 -32 39 -45 45 -14 6 -33 24 -42 39 -53 86 -105 161 -128 182
-20 19 -26 34 -26 67 0 23 -6 57 -13 75 -15 37 -14 221 0 272 8 26 13 29 64
31 37 2 71 11 100 27 l44 25 30 -55 c17 -31 55 -83 86 -116z m2343 134 c21
-12 62 -23 96 -26 59 -6 60 -6 70 -42 15 -56 12 -222 -5 -271 -8 -23 -15 -56
-15 -72 0 -18 -12 -44 -30 -66 -53 -66 -98 -130 -115 -162 -9 -17 -31 -40 -48
-50 -18 -11 -40 -33 -50 -49 -10 -18 -37 -39 -64 -51 -25 -11 -57 -31 -71 -45
-14 -14 -36 -25 -49 -25 -13 0 -41 -9 -63 -20 -22 -11 -51 -20 -65 -20 -32 0
-60 -14 -103 -51 -25 -22 -43 -29 -76 -29 -27 0 -52 -7 -67 -19 -13 -10 -40
-21 -60 -25 l-36 -6 -6 57 c-13 111 -23 133 -77 156 l-48 20 21 36 c11 20 22
38 24 40 1 2 20 -12 41 -31 46 -41 102 -63 139 -53 l26 6 -36 37 c-32 33 -57
78 -57 103 0 5 15 15 34 23 19 8 46 31 60 52 31 47 44 28 23 -34 -16 -46 -11
-50 33 -27 37 19 69 81 77 146 5 41 9 49 22 43 91 -40 170 -54 199 -35 10 6 0
17 -36 39 -56 34 -99 97 -109 157 -7 44 5 55 63 55 56 0 123 25 168 61 40 34
136 164 136 186 0 18 13 16 54 -8z m-2019 -279 c3 -5 1 -10 -4 -10 -6 0 -11 5
-11 10 0 6 2 10 4 10 3 0 8 -4 11 -10z m25 -106 c0 -8 -19 -13 -24 -6 -3 5 1
9 9 9 8 0 15 -2 15 -3z m-100 -21 c-1 -17 -26 -40 -50 -47 -23 -6 -23 -6 -5 5
11 7 26 21 33 31 14 19 22 23 22 11z m134 -91 c3 -5 -1 -9 -9 -9 -8 0 -12 4
-9 9 3 4 7 8 9 8 2 0 6 -4 9 -8z m466 -212 c56 -43 172 -110 211 -122 32 -9
44 -7 94 16 31 14 102 55 156 91 l100 65 -3 -117 -3 -117 -30 -8 c-16 -4 -50
-8 -75 -9 -70 -2 -421 10 -460 17 -74 11 -70 4 -70 125 l0 110 23 -12 c12 -7
38 -24 57 -39z m393 -219 c26 -10 27 -12 27 -95 0 -112 -7 -141 -36 -155 -31
-14 -154 -15 -154 -1 0 6 29 10 68 10 82 0 87 6 97 112 11 120 20 114 -152
110 -160 -3 -173 -8 -173 -60 0 -13 -4 -20 -10 -17 -11 7 -2 87 11 95 15 10
296 11 322 1z m-493 -91 c0 -5 -2 -10 -4 -10 -3 0 -8 5 -11 10 -3 6 -1 10 4
10 6 0 11 -4 11 -10z m238 -29 c2 -1 0 -5 -3 -11 -12 -19 -115 -8 -115 12 0 7
84 6 118 -1z m-68 -66 c0 -32 25 -55 61 -55 16 0 29 -4 29 -10 0 -16 -63 -12
-88 6 -16 11 -22 25 -22 55 0 24 4 38 10 34 6 -3 10 -17 10 -30z m140 -110 c0
-88 -13 -113 -24 -47 -11 71 -7 132 9 132 12 0 15 -16 15 -85z m434 50 c-4 -8
-14 -15 -23 -15 -14 1 -13 3 3 15 25 19 27 19 20 0z m-347 -41 c-3 -3 -12 -4
-19 -1 -8 3 -5 6 6 6 11 1 17 -2 13 -5z m-92 -120 c8 3 15 1 15 -3 0 -5 3 -16
6 -25 5 -13 -1 -16 -25 -16 -20 0 -31 5 -31 14 0 8 -3 23 -7 33 -6 16 -5 16
10 4 9 -7 24 -11 32 -7z m-25 -204 c0 -29 -4 -40 -15 -40 -9 0 -15 9 -15 24 0
13 -3 31 -6 40 -4 12 0 16 15 16 18 0 21 -6 21 -40z m88 -169 c9 -26 7 -30
-15 -40 -30 -14 -31 -13 -42 27 -10 35 -6 42 25 42 15 0 25 -9 32 -29z m55
-258 c-9 -7 -21 -14 -26 -16 -8 -2 -7 -13 2 -34 13 -31 13 -31 47 -17 35 15
35 15 49 -18 12 -31 12 -34 -8 -45 -31 -17 -35 -16 -51 15 -8 15 -15 23 -16
18 0 -4 12 -30 28 -57 17 -33 32 -48 42 -46 8 3 21 6 29 8 23 7 24 -19 0 -31
-12 -7 -19 -8 -15 -2 3 5 -6 10 -21 10 -26 0 -26 -1 -7 -15 19 -15 19 -15 -1
-11 -14 2 -35 34 -72 108 -29 58 -53 112 -53 121 0 20 72 50 82 35 4 -6 0 -16
-9 -23z"/>
<path d="M2954 2910 c-17 -5 -39 -19 -50 -31 l-19 -22 79 7 c43 3 133 6 200 7
l121 0 -50 21 c-57 23 -229 34 -281 18z m246 -18 c21 -5 -26 -8 -117 -7 -141
0 -175 6 -113 18 31 7 182 -1 230 -11z"/>
<path d="M2331 2580 c14 -31 19 -36 19 -24 0 6 -7 19 -16 30 -14 18 -14 18 -3
-6z"/>
<path d="M2102 2331 c-11 -7 -10 -10 3 -15 31 -11 120 -6 139 9 18 14 13 15
-55 15 -41 0 -80 -4 -87 -9z"/>
<path d="M2982 2321 c23 -16 121 -22 134 -8 12 12 2 14 -79 19 -72 5 -76 4
-55 -11z"/>
<path d="M2535 1963 c-16 -1 -54 -6 -82 -9 l-53 -5 0 -40 c0 -60 44 -133 108
-183 17 -13 12 -3 -14 25 -23 26 -47 56 -54 69 -12 22 -11 22 16 16 50 -12
287 -19 281 -9 -6 9 9 10 46 4 5 0 5 -6 1 -12 -4 -8 -9 -7 -16 2 -7 10 -8 8
-4 -6 4 -15 -6 -33 -37 -64 -23 -24 -33 -39 -22 -33 60 32 115 121 115 186 0
31 -23 56 -38 41 -3 -3 -2 -5 3 -5 4 0 0 -9 -10 -20 -24 -27 -31 -25 -43 8 -9
27 -15 29 -72 35 -63 7 -69 7 -125 0z"/>
<path d="M1556 2211 c-4 -5 3 -7 14 -4 23 6 26 13 6 13 -8 0 -17 -4 -20 -9z"/>
<path d="M3692 2175 c4 -4 3 -14 -3 -22 -7 -8 -8 -13 -1 -13 15 0 23 28 9 36
-7 4 -9 4 -5 -1z"/>
<path d="M2990 3915 c-137 -37 -200 -48 -307 -55 l-118 -9 136 5 c78 2 152 10
175 17 64 23 167 30 200 13 149 -73 164 -84 261 -191 17 -19 37 -35 44 -35 8
0 -3 14 -24 31 -20 17 -37 36 -37 44 0 21 -100 100 -180 142 -99 52 -98 51
-150 38z"/>
<path d="M2355 3882 c10 -11 184 -37 192 -29 2 3 -33 10 -79 16 -46 7 -92 15
-103 18 -14 4 -17 2 -10 -5z"/>
<path d="M2518 743 c6 -2 18 -2 25 0 6 3 1 5 -13 5 -14 0 -19 -2 -12 -5z"/>
<path d="M3982 665 c0 -16 2 -22 5 -12 2 9 2 23 0 30 -3 6 -5 -1 -5 -18z"/>
<path d="M2622 635 c0 -16 2 -22 5 -12 2 9 2 23 0 30 -3 6 -5 -1 -5 -18z"/>
<path d="M2537 613 c-4 -3 -7 -13 -7 -22 1 -13 3 -13 11 2 11 19 8 33 -4 20z"/>
<path d="M4018 593 c7 -3 16 -2 19 1 4 3 -2 6 -13 5 -11 0 -14 -3 -6 -6z"/>
<path d="M3991 514 c0 -11 3 -14 6 -6 3 7 2 16 -1 19 -3 4 -6 -2 -5 -13z"/>
<path d="M3993 393 c3 -13 1 -23 -4 -23 -5 0 -9 5 -9 12 0 6 -3 8 -6 5 -10 -9
16 -37 33 -37 8 0 11 5 8 10 -3 6 3 10 14 10 18 0 19 -3 11 -26 -6 -14 -10
-33 -9 -42 1 -9 7 3 15 27 15 48 12 61 -15 61 -9 0 -23 6 -30 13 -11 10 -13 8
-8 -10z"/>
<path d="M4050 406 c0 -2 8 -10 18 -17 15 -13 16 -12 3 4 -13 16 -21 21 -21
13z"/>
<path d="M3906 185 c-9 -26 -7 -32 5 -12 6 10 9 21 6 23 -2 3 -7 -2 -11 -11z"/>
<path d="M819 134 c-17 -42 -24 -134 -10 -134 6 0 11 16 11 38 0 20 5 54 11
75 13 47 4 61 -12 21z"/>
<path d="M4375 95 c9 -75 14 -95 26 -95 14 0 1 87 -17 120 -13 23 -14 22 -9
-25z"/>
<path d="M3850 111 c-9 -9 -28 -39 -43 -66 -16 -28 -20 -39 -9 -26 19 24 20
24 26 3 5 -15 15 -20 36 -20 36 1 37 4 9 19 -15 8 -19 8 -15 0 4 -6 3 -11 -3
-11 -5 0 -11 6 -14 13 -6 18 13 68 24 61 5 -3 6 3 2 12 -4 12 -3 15 5 10 8 -5
10 -2 6 8 -3 9 -7 16 -8 15 0 0 -8 -8 -16 -18z"/>
<path d="M2876 17 c3 -10 9 -15 12 -12 3 3 0 11 -7 18 -10 9 -11 8 -5 -6z"/>
</g>
</svg>
